<svg width="150" height="150" viewBox="0 0 150 150" fill="none" xmlns="http://www.w3.org/2000/svg">
<rect width="150" height="150" rx="50" fill="#E17842"/>
<path fill-rule="evenodd" clip-rule="evenodd" d="M121.8 93.7321V75.0023C121.8 69.8188 117.547 65.5667 112.366 65.5667H107.716C105.061 65.5667 102.933 63.4406 102.933 60.9161C102.933 42.8478 88.1849 28.1003 70.1166 28.1003H56.0327C40.6214 28.1003 28 40.7217 28 56.1331V93.7321C28 109.143 40.6214 121.9 56.0327 121.9H93.6317C109.043 121.9 121.8 109.143 121.8 93.7321ZM56.0324 88.9491H88.8484C91.5077 88.9491 93.6314 91.0775 93.6314 93.7321C93.6314 96.2586 91.5077 98.3824 88.8484 98.3824H56.0324C53.5082 98.3824 51.3845 96.2586 51.3845 93.7321C51.3845 91.0775 53.5082 88.9491 56.0324 88.9491ZM78.4858 56.1331C78.4858 58.79 76.4948 60.9164 73.8376 60.9164H56.0324C53.5082 60.9164 51.3845 58.7903 51.3845 56.1331C51.3845 53.6088 53.5082 51.4851 56.0324 51.4851H73.8376C76.4948 51.4851 78.4858 53.6088 78.4858 56.1331Z" fill="white"/>
</svg>
