<svg width="151" height="150" viewBox="0 0 151 150" fill="none" xmlns="http://www.w3.org/2000/svg">
<path d="M49.5796 91.3042C58.5843 91.3042 65.884 84.0045 65.884 74.9999C65.884 65.9953 58.5843 58.6956 49.5796 58.6956C40.575 58.6956 33.2753 65.9953 33.2753 74.9999C33.2753 84.0045 40.575 91.3042 49.5796 91.3042Z" fill="#FA5C75"/>
<path d="M101.754 91.3042C110.758 91.3042 118.058 84.0045 118.058 74.9999C118.058 65.9953 110.758 58.6956 101.754 58.6956C92.749 58.6956 85.4493 65.9953 85.4493 74.9999C85.4493 84.0045 92.749 91.3042 101.754 91.3042Z" fill="#49AAEE"/>
<path d="M75.6666 0C90.5002 0 105.001 4.39867 117.334 12.6398C129.668 20.8809 139.281 32.5943 144.958 46.2987C150.634 60.0032 152.119 75.0832 149.225 89.6318C146.332 104.18 139.189 117.544 128.7 128.033C118.211 138.522 104.847 145.665 90.2984 148.559C75.7498 151.453 60.6698 149.968 46.9654 144.291C33.2609 138.614 21.5475 129.001 13.3064 116.668C5.0653 104.334 0.666626 89.8336 0.666626 75C0.666626 55.1088 8.56839 36.0322 22.6336 21.967C36.6988 7.90176 55.7754 0 75.6666 0ZM118.058 75C118.058 71.7753 117.102 68.623 115.31 65.9418C113.519 63.2605 110.972 61.1708 107.993 59.9367C105.014 58.7027 101.735 58.3798 98.5727 59.0089C95.41 59.638 92.5049 61.1909 90.2247 63.4711C87.9445 65.7513 86.3916 68.6564 85.7625 71.8192C85.1334 74.9819 85.4563 78.2602 86.6903 81.2394C87.9244 84.2186 90.0141 86.765 92.6954 88.5566C95.3766 90.3481 98.5289 91.3043 101.754 91.3043C106.078 91.3043 110.225 89.5866 113.282 86.5289C116.34 83.4712 118.058 79.3242 118.058 75ZM65.884 75C65.884 71.7753 64.9278 68.623 63.1362 65.9418C61.3447 63.2605 58.7983 61.1708 55.8191 59.9367C52.8398 58.7027 49.5616 58.3798 46.3988 59.0089C43.2361 59.638 40.331 61.1909 38.0507 63.4711C35.7705 65.7513 34.2177 68.6564 33.5886 71.8192C32.9595 74.9819 33.2824 78.2602 34.5164 81.2394C35.7504 84.2186 37.8402 86.765 40.5215 88.5566C43.2027 90.3481 46.355 91.3043 49.5797 91.3043C53.9038 91.3043 58.0509 89.5866 61.1086 86.5289C64.1662 83.4712 65.884 79.3242 65.884 75Z" fill="#F1F2F2"/>
<path d="M49.5797 94.5653C45.7101 94.5653 41.9274 93.4178 38.7099 91.2679C35.4924 89.1181 32.9847 86.0624 31.5038 82.4873C30.023 78.9122 29.6355 74.9783 30.3905 71.1831C31.1454 67.3878 33.0088 63.9016 35.7451 61.1653C38.4813 58.4291 41.9675 56.5657 45.7628 55.8108C49.558 55.0558 53.492 55.4433 57.067 56.9241C60.6421 58.405 63.6978 60.9127 65.8476 64.1302C67.9975 67.3477 69.145 71.1304 69.145 75C69.1398 80.1875 67.0768 85.1609 63.4087 88.829C59.7407 92.4971 54.7672 94.5601 49.5797 94.5653ZM49.5797 61.9566C47 61.9566 44.4782 62.7216 42.3332 64.1548C40.1882 65.588 38.5164 67.6251 37.5291 70.0085C36.5419 72.3919 36.2836 75.0145 36.7869 77.5447C37.2902 80.0749 38.5325 82.399 40.3566 84.2232C42.1808 86.0473 44.5049 87.2896 47.0351 87.7929C49.5653 88.2962 52.1879 88.0379 54.5713 87.0506C56.9547 86.0634 58.9918 84.3916 60.425 82.2466C61.8582 80.1016 62.6232 77.5798 62.6232 75C62.6232 71.5407 61.249 68.223 58.8029 65.7769C56.3567 63.3308 53.0391 61.9566 49.5797 61.9566Z" fill="#E93D5B"/>
<path d="M101.754 94.5653C97.8839 94.5653 94.1012 93.4178 90.8837 91.2679C87.6662 89.1181 85.1585 86.0624 83.6777 82.4873C82.1968 78.9122 81.8094 74.9783 82.5643 71.1831C83.3192 67.3878 85.1826 63.9016 87.9189 61.1653C90.6551 58.4291 94.1413 56.5657 97.9366 55.8108C101.732 55.0558 105.666 55.4433 109.241 56.9241C112.816 58.405 115.872 60.9127 118.021 64.1302C120.171 67.3477 121.319 71.1304 121.319 75C121.314 80.1875 119.251 85.1609 115.583 88.829C111.914 92.4971 106.941 94.5601 101.754 94.5653ZM101.754 61.9566C99.1738 61.9566 96.652 62.7216 94.507 64.1548C92.362 65.588 90.6902 67.6251 89.703 70.0085C88.7157 72.3919 88.4574 75.0145 88.9607 77.5447C89.464 80.0749 90.7063 82.399 92.5305 84.2232C94.3546 86.0473 96.6787 87.2896 99.2089 87.7929C101.739 88.2962 104.362 88.0379 106.745 87.0506C109.128 86.0634 111.166 84.3916 112.599 82.2466C114.032 80.1016 114.797 77.5798 114.797 75C114.797 71.5407 113.423 68.223 110.977 65.7769C108.531 63.3308 105.213 61.9566 101.754 61.9566Z" fill="#3398D6"/>
</svg>
