<svg width="50" height="50" viewBox="0 0 50 50" fill="none" xmlns="http://www.w3.org/2000/svg">
<path fill-rule="evenodd" clip-rule="evenodd" d="M25 45.8334C36.5059 45.8334 45.8333 36.506 45.8333 25C45.8333 13.4941 36.5059 4.16669 25 4.16669C13.4941 4.16669 4.16666 13.4941 4.16666 25C4.16666 36.506 13.4941 45.8334 25 45.8334Z" stroke="black" stroke-width="2" stroke-linecap="round" stroke-linejoin="round"/>
<path d="M4.16666 25H45.8333" stroke="black" stroke-width="2" stroke-linecap="round" stroke-linejoin="round"/>
<path fill-rule="evenodd" clip-rule="evenodd" d="M25 45.8334C29.6024 45.8334 33.3333 36.506 33.3333 25C33.3333 13.4941 29.6024 4.16669 25 4.16669C20.3976 4.16669 16.6667 13.4941 16.6667 25C16.6667 36.506 20.3976 45.8334 25 45.8334Z" stroke="black" stroke-width="2" stroke-linecap="round" stroke-linejoin="round"/>
<path d="M10.2686 10.5647C14.0387 14.3348 19.2471 16.6667 25 16.6667C30.753 16.6667 35.9613 14.3348 39.7314 10.5647" stroke="black" stroke-width="2" stroke-linecap="round" stroke-linejoin="round"/>
<path d="M39.7314 39.4353C35.9613 35.6652 30.753 33.3333 25 33.3333C19.2471 33.3333 14.0387 35.6652 10.2686 39.4353" stroke="black" stroke-width="2" stroke-linecap="round" stroke-linejoin="round"/>
</svg>
