<svg width="40" height="41" viewBox="0 0 40 41" fill="none" xmlns="http://www.w3.org/2000/svg">
<path d="M8.125 24.25H33.125C33.399 24.2502 33.6654 24.1604 33.8833 23.9944C34.1013 23.8284 34.2587 23.5954 34.3312 23.3312L38.0812 9.58125C38.1323 9.39564 38.1397 9.20076 38.103 9.01179C38.0664 8.82283 37.9865 8.64489 37.8698 8.49185C37.753 8.33881 37.6025 8.21479 37.43 8.12948C37.2574 8.04416 37.0675 7.99985 36.875 8H7.96875L7.5 5.28125C7.44807 4.9889 7.29378 4.72459 7.06474 4.53563C6.83571 4.34668 6.54689 4.24542 6.25 4.25H3.125C2.79348 4.25 2.47554 4.38169 2.24112 4.61611C2.0067 4.85053 1.875 5.16848 1.875 5.5C1.875 5.83152 2.0067 6.14946 2.24112 6.38388C2.47554 6.6183 2.79348 6.75 3.125 6.75H5.20625L7.88125 21.75C6.72093 21.7823 5.62097 22.2743 4.82335 23.1176C4.02574 23.9609 3.5958 25.0865 3.62813 26.2469C3.66045 27.4072 4.15238 28.5072 4.99571 29.3048C5.83904 30.1024 6.96468 30.5323 8.125 30.5H9.175C8.85743 31.1669 8.71388 31.9033 8.75771 32.6406C8.80154 33.3779 9.03134 34.0922 9.42568 34.7167C9.82002 35.3413 10.3661 35.8558 11.0129 36.2124C11.6598 36.569 12.3864 36.756 13.125 36.756C13.8636 36.756 14.5902 36.569 15.2371 36.2124C15.8839 35.8558 16.43 35.3413 16.8243 34.7167C17.2187 34.0922 17.4485 33.3779 17.4923 32.6406C17.5361 31.9033 17.3926 31.1669 17.075 30.5H23.55C23.2324 31.1669 23.0889 31.9033 23.1327 32.6406C23.1765 33.3779 23.4063 34.0922 23.8007 34.7167C24.195 35.3413 24.7411 35.8558 25.3879 36.2124C26.0348 36.569 26.7614 36.756 27.5 36.756C28.2386 36.756 28.9652 36.569 29.6121 36.2124C30.2589 35.8558 30.805 35.3413 31.1993 34.7167C31.5937 34.0922 31.8235 33.3779 31.8673 32.6406C31.9111 31.9033 31.7676 31.1669 31.45 30.5H35C35.3315 30.5 35.6495 30.3683 35.8839 30.1339C36.1183 29.8995 36.25 29.5815 36.25 29.25C36.25 28.9185 36.1183 28.6005 35.8839 28.3661C35.6495 28.1317 35.3315 28 35 28H8.125C7.62772 28 7.15081 27.8025 6.79917 27.4508C6.44754 27.0992 6.25 26.6223 6.25 26.125C6.25 25.6277 6.44754 25.1508 6.79917 24.7992C7.15081 24.4475 7.62772 24.25 8.125 24.25ZM35.2375 10.5L32.1688 21.75H10.4187L8.4125 10.5H35.2375ZM15 32.375C15 32.7458 14.89 33.1083 14.684 33.4167C14.478 33.725 14.1851 33.9654 13.8425 34.1073C13.4999 34.2492 13.1229 34.2863 12.7592 34.214C12.3955 34.1416 12.0614 33.963 11.7992 33.7008C11.537 33.4386 11.3584 33.1045 11.286 32.7408C11.2137 32.3771 11.2508 32.0001 11.3927 31.6575C11.5346 31.3149 11.775 31.022 12.0833 30.816C12.3916 30.61 12.7542 30.5 13.125 30.5C13.6223 30.5 14.0992 30.6975 14.4508 31.0492C14.8025 31.4008 15 31.8777 15 32.375ZM29.375 32.375C29.375 32.7458 29.265 33.1083 29.059 33.4167C28.853 33.725 28.5601 33.9654 28.2175 34.1073C27.8749 34.2492 27.4979 34.2863 27.1342 34.214C26.7705 34.1416 26.4364 33.963 26.1742 33.7008C25.912 33.4386 25.7334 33.1045 25.661 32.7408C25.5887 32.3771 25.6258 32.0001 25.7677 31.6575C25.9096 31.3149 26.15 31.022 26.4583 30.816C26.7666 30.61 27.1292 30.5 27.5 30.5C27.9973 30.5 28.4742 30.6975 28.8258 31.0492C29.1775 31.4008 29.375 31.8777 29.375 32.375Z" fill="#231F20"/>
</svg>
