<svg width="50" height="50" viewBox="0 0 50 50" fill="none" xmlns="http://www.w3.org/2000/svg">
<path d="M35.4167 12.5V20.8333V21.875C32.3385 21.875 29.5721 23.2102 27.6651 25.3331C26.0081 27.1777 25 29.617 25 32.2917C25 32.8947 25.0513 33.4857 25.1496 34.0607C25.6853 37.1923 27.6191 39.8468 30.2855 41.359C27.5121 42.1975 23.8309 42.7083 19.7917 42.7083C11.1622 42.7083 4.16669 40.3765 4.16669 37.5V29.1667V20.8333V12.5" stroke="black" stroke-width="2" stroke-linecap="round" stroke-linejoin="round"/>
<path d="M35.4167 12.5C35.4167 15.3765 28.4212 17.7084 19.7917 17.7084C11.1622 17.7084 4.16669 15.3765 4.16669 12.5C4.16669 9.62354 11.1622 7.29169 19.7917 7.29169C28.4212 7.29169 35.4167 9.62354 35.4167 12.5Z" stroke="black" stroke-width="2" stroke-linecap="round" stroke-linejoin="round"/>
<path d="M4.16669 29.1667C4.16669 32.0431 11.1622 34.375 19.7917 34.375C21.674 34.375 23.4785 34.2641 25.1496 34.0607" stroke="black" stroke-width="2" stroke-linecap="round" stroke-linejoin="round"/>
<path d="M4.16669 20.8333C4.16669 23.7098 11.1622 26.0416 19.7917 26.0416C22.6628 26.0416 25.3531 25.7835 27.6651 25.3331" stroke="black" stroke-width="2" stroke-linecap="round" stroke-linejoin="round"/>
<path d="M45.8333 32.2917C45.8333 38.0446 41.1696 42.7083 35.4167 42.7083C33.5511 42.7083 31.8001 42.2179 30.2855 41.359C27.6191 39.8468 25.6853 37.1923 25.1496 34.0607C25.0513 33.4857 25 32.8947 25 32.2917C25 29.617 26.0081 27.1777 27.6651 25.3331C29.5721 23.2102 32.3384 21.875 35.4167 21.875C41.1696 21.875 45.8333 26.5387 45.8333 32.2917Z" stroke="black" stroke-width="2" stroke-linecap="round" stroke-linejoin="round"/>
</svg>
