<svg width="151" height="150" viewBox="0 0 151 150" fill="none" xmlns="http://www.w3.org/2000/svg">
<path d="M111.232 107.795C111.232 109.319 110.298 110.081 108.43 110.081H95.2465C93.855 110.081 92.317 109.602 90.6322 108.645C88.9842 107.653 87.721 106.466 86.842 105.084L77.5037 90.943C73.6585 85.131 69.0075 82.2249 63.551 82.2249H50.1477V105.084C50.1477 106.466 49.635 107.653 48.6095 108.645C47.6207 109.602 46.4122 110.081 44.9842 110.081H34.657C33.2287 110.081 32.002 109.602 30.9765 108.645C29.9512 107.653 29.4385 106.466 29.4385 105.084V38.8998C29.4385 37.5176 29.9327 36.3304 30.9217 35.338C31.9105 34.3458 33.119 33.8496 34.547 33.8496H79.8657C88.252 33.8496 95.1185 36.0292 100.465 40.3882C105.848 44.7474 108.54 50.6303 108.54 58.0374C108.54 68.3503 101.637 74.818 87.8307 77.4406C90.028 78.2203 92.0605 79.5669 93.9282 81.4807C95.796 83.359 97.9382 86.1055 100.355 89.7205L110.353 105.084C110.939 106.076 111.232 106.98 111.232 107.795ZM50.1477 67.1808H73.5485C77.3205 67.1808 80.6347 66.4543 83.4912 65.0012C86.3842 63.5482 87.8307 61.2268 87.8307 58.0374C87.8307 54.8477 86.3842 52.5263 83.4912 51.0735C80.6347 49.6204 77.3205 48.8939 73.5485 48.8939H50.1477V67.1808Z" fill="white"/>
<path d="M71.3173 104.025C71.3173 99.2764 71.9885 95.2007 73.3313 91.7986C74.6985 88.3963 76.6273 85.7384 79.1175 83.8247C83.8538 80.1625 90.0305 78.3315 97.6478 78.3315H100.211C107.828 78.3315 114.005 80.1625 118.742 83.8247C123.942 87.8411 126.542 94.5746 126.542 104.025C126.542 113.523 123.942 120.268 118.742 124.261C114.005 127.9 107.828 129.719 100.211 129.719H97.6478C90.0305 129.719 83.8538 127.9 79.1175 124.261C73.9173 120.268 71.3173 113.523 71.3173 104.025ZM98.9295 88.361C89.7253 88.361 85.1233 93.594 85.1233 104.061C85.1233 114.504 89.7253 119.725 98.9295 119.725C108.134 119.725 112.736 114.504 112.736 104.061C112.736 93.594 108.134 88.361 98.9295 88.361Z" fill="#1F68F2"/>
</svg>
