<svg width="150" height="150" viewBox="0 0 150 150" fill="none" xmlns="http://www.w3.org/2000/svg">
<path d="M31.5136 94.7879C31.5136 103.461 24.4286 110.545 15.7566 110.545C7.08487 110.545 0.000244141 103.46 0.000244141 94.7879C0.000244141 86.1166 7.0852 79.032 15.7566 79.032H31.5136V94.7879Z" fill="#E01E5A"/>
<path d="M39.4551 94.7879C39.4551 86.1166 46.5404 79.032 55.2121 79.032C63.8838 79.032 70.9687 86.1169 70.9687 94.7879V134.244C70.9687 142.915 63.8834 150 55.2121 150C46.54 150 39.4551 142.915 39.4551 134.244V94.7879Z" fill="#E01E5A"/>
<path d="M55.2119 31.5138C46.5399 31.5138 39.455 24.4285 39.455 15.7568C39.455 7.08517 46.5402 0.000244141 55.2119 0.000244141C63.8836 0.000244141 70.9686 7.08549 70.9686 15.7568V31.5138H55.2119Z" fill="#36C5F0"/>
<path d="M55.2119 39.4553C63.8836 39.4553 70.9686 46.5402 70.9686 55.2122C70.9686 63.8839 63.8833 70.9682 55.2119 70.9682H15.7563C7.08463 70.9682 0 63.8836 0 55.2122C0 46.5399 7.08495 39.4553 15.7563 39.4553H55.2119Z" fill="#36C5F0"/>
<path d="M118.487 55.2122C118.487 46.5399 125.571 39.4553 134.243 39.4553C142.915 39.4553 149.999 46.5402 149.999 55.2122C149.999 63.8839 142.915 70.9682 134.243 70.9682H118.487V55.2122Z" fill="#2EB67D"/>
<path d="M110.545 55.2123C110.545 63.884 103.46 70.9683 94.788 70.9683C86.1163 70.9683 79.0314 63.8836 79.0314 55.2123V15.7566C79.0314 7.08492 86.1167 0 94.788 0C103.46 0 110.545 7.08525 110.545 15.7566V55.2123Z" fill="#2EB67D"/>
<path d="M94.7882 118.486C103.46 118.486 110.545 125.571 110.545 134.243C110.545 142.915 103.46 150 94.7882 150C86.1164 150 79.0315 142.914 79.0315 134.243V118.486H94.7882Z" fill="#ECB22E"/>
<path d="M94.7882 110.545C86.1164 110.545 79.0315 103.46 79.0315 94.7879C79.0315 86.1166 86.1168 79.032 94.7882 79.032H134.244C142.916 79.032 150 86.1169 150 94.7879C150 103.461 142.915 110.545 134.244 110.545H94.7882Z" fill="#ECB22E"/>
</svg>
