<svg width="50" height="50" viewBox="0 0 50 50" fill="none" xmlns="http://www.w3.org/2000/svg">
<path d="M43.5204 21.4652C43.7837 19.6987 43.6974 17.8903 43.2614 16.1514C42.6854 13.8544 41.4992 11.6789 39.7028 9.88259C37.9065 8.08624 35.731 6.90008 33.4341 6.3241C31.6952 5.88808 29.8867 5.80172 28.1202 6.06503" stroke="black" stroke-width="2" stroke-linecap="round" stroke-linejoin="round"/>
<path d="M35.6142 20.6287C35.8963 18.7364 35.309 16.7395 33.8523 15.2828C32.3955 13.8262 30.3987 13.2388 28.5065 13.5208" stroke="black" stroke-width="2" stroke-linecap="round" stroke-linejoin="round"/>
<path d="M14.9745 9.16064C15.7314 9.16064 16.4286 9.57108 16.7959 10.2328L19.3444 14.8232C19.678 15.4243 19.6936 16.1512 19.3863 16.7661L16.9313 21.6761C16.9313 21.6761 17.6427 25.3339 20.6202 28.3114C23.5977 31.2889 27.2432 31.9881 27.2432 31.9881L32.1525 29.5335C32.7678 29.2258 33.4953 29.2418 34.0966 29.576L38.7 32.1354C39.361 32.5029 39.771 33.1999 39.771 33.9562V39.2411C39.771 41.9325 37.2711 43.8763 34.721 43.0158C29.4836 41.2486 21.3538 37.8838 16.2008 32.7308C11.0478 27.5779 7.68303 19.448 5.9158 14.2106C5.05536 11.6605 6.9992 9.16064 9.69051 9.16064H14.9745Z" stroke="black" stroke-width="2" stroke-linejoin="round"/>
</svg>
